<svg data-v-0dd9719b="" version="1.0" xmlns="http://www.w3.org/2000/svg" xmlns:xlink="http://www.w3.org/1999/xlink" width="680" height="500" viewBox="0 0 340.000000 250.000000" preserveAspectRatio="xMidYMid meet" color-interpolation-filters="sRGB" style="">   <g data-v-0dd9719b="" fill="#333333" class="icon-text-wrapper icon-svg-group iconsvg" transform="translate(117.38274765014648,72.38274765014648)"><g fill="#1684ac" class="iconsvg-imagesvg icon_container" transform="translate(0,0)"><rect fill="#333333" fill-opacity="0" stroke-width="2" x="0" y="0" width="105.2345066704112" height="105.2345066704112" class="image-rect"></rect> <svg viewBox="0 0 60 58.661348037777906" x="0" y="0" width="105.2345066704112" height="105.2345066704112" class="image-svg-svg bn" style="overflow: visible;"><g hollow-target="iconBnFill" mask="url(#4643a675-aa47-4931-a9ed-41e451ed0619)"><g><svg xmlns="http://www.w3.org/2000/svg" viewBox="0.03419 -0.0032 291.27557 284.77563" style="overflow: visible;" width="60" height="58.661348037777906" x="0" y="0" filtersec="colorsf5647854027" filter="url(#5r31zk-5LerADzV9pHp3R)"><g transform="scale(1, 1) skewX(0)"><g><path d="M287.78 192.13c-2.19-3.91-.23-7.53-3.19-10.37-1 4.75 0 9 3.13 11.17 3.31 2.34 3.12 6.07 1.93 7.15-3.3 3-.53 5.67-.72 8.4a80.74 80.74 0 0 1-4.87 22.8c-1 2.82-2.21 5.5-2.43 8.57-.14 2-.27 3.66-3.41 4.34-3.49.74-4.35 5-6 8.18 1.91.42 2.17-2.48 4.56-1.06-1.78 7.69-6.5 13.69-12.14 19.17a2 2 0 0 1-2.28.32c-4.11-1.65-6-.41-5.79 3.75.05 1.08-.61 1.42-1.29 1.87a27 27 0 0 1-8 3.93c-1 .24-2.08 1.13-2.75-.8-.87-2.5-1.54-2.7-3.38-.79-6.51 6.77-14.81 4.48-22.54 5.16 5.1-4.29 11.7-3.73 17.49-6 8.93-3.48 17.3-7.29 23.77-14.56.63-.7 1.42-1.82 2.42-1.2.51.31.39 1.63.79 3.76.85-5.3 6.34-8 3.41-13.31-1.72-.05-2.1 1.49-2.88 2.38-10.86 12.47-24.2 20.27-40.89 21.37-9.93.65-19.32 4.36-29.42 4.27s-20.08 1.35-30.12-.22c-2-.32-4-.32-5.71 1a5 5 0 0 1-4.32.71c-6.17-1.51-12.25-.07-18.28.68-5.69.7-10.92-1.62-16.68-1.31-7.47.41-14.78 2-22.23 2.18-2.21.06-5 2-6.49-1.52-.09-.21-.92-.37-1.23-.2-11.19 5.89-21.73 1.31-32.08-2.42-10-3.62-19.11-9.44-27.67-15.68-8.15-5.94-12.56-14.73-14-24.76-.39-2.69-2.86-3.8-3.65-6.27-2.33-7.32-2.27-14.57-1.29-22.1.78-6 1.23-12.19-1.19-18.14-.88 4.42-2.68 8.53-1.36 13.25.9 3.21 3 7.24-2.41 9.18-1.34.48-.12 1.79.31 2.47 2 3.18 2.54 6.8 3.31 10.37 3.93 18.24 11.86 34.1 27.16 45.58a22.14 22.14 0 0 1 2.67 2.24 2.57 2.57 0 0 1 .46 3.2c-.92 1.23-2.14.25-3.05-.37a76 76 0 0 1-15.85-14.37c-5.93-7.1-11.34-14.85-13-23.88-1.95-10.33-5.31-20.38-4.84-31.33.79-18.27.29-36.61.11-54.92-.13-12.75-1.42-25.49-.55-38.25.19-2.81.05-5.69.68-8.39a29.76 29.76 0 0 0-1.5-18 6.94 6.94 0 0 1 .38-5.82A10.24 10.24 0 0 0 1 74a4.88 4.88 0 0 1-.61-2.83C2.72 61.38 3.45 51.15 10.6 43c3.4-3.92 5.45-9 8.09-13.5 1.38-2.38 2.45-4.57 5.64-5.69 4.08-1.43 5.53-6.69 9.84-8.39 1.84-.73 3.12-4.78 5.65-.78.12.18 1.27-.13 1.83-.42a14.62 14.62 0 0 0 3.39-2c2.92-2.73 9.23-1.58 9.85-4C56.2 3 60 3.59 63.08 2.27a20.05 20.05 0 0 1 11.79-1.15C80.6 2.28 86 1.57 91.61.45c2.33-.46 5-1 7 1.32.21.25.55.68.7.63 7.68-2.5 15.38 4.25 23.32-.51 4.23-2.54 9.55-2 14.65-1.36a112.77 112.77 0 0 0 15.93.38c7.69-.16 15.28.18 22.7 2.42a22.67 22.67 0 0 0 8.88.58c-.33-1.23-2-.37-2.27-2.41 4-.09 8.11-1.55 12 .89 1.48.94 2.44-.19 3.64-.19 2 0 4-.23 6-.13 3 .13 7.69-1.15 8 2.76.34 4.11-4.67 1.6-7 2.94 4.42 1 8.17 0 11.21-3.52a7.27 7.27 0 0 1 5.81-2.32c10-.08 18.71 3.34 27.14 8.41 4.57 2.76 8.42 6.49 13.62 8.49s9 6.41 12.39 10.94a84.94 84.94 0 0 1 8.75 15.67c1.14 2.5 3.3 4.75.05 7.73-1.49 1.37-.83 4.36.92 7l1-4.44c2.23 10 6.33 19.66 5 30.1-.25 2 .75 4.93-3.5 4.28-2.15-.33-1.38 2.28-1.25 3.54.39 3.63 2.35 7.63 1.36 10.76-1.86 5.92.14 10.81 1.88 16 .93 2.76-.46 5.23-.62 7.85-.63 10.58.94 21.11-.21 31.8a65.59 65.59 0 0 0 .6 16c.69 4.87-.31 9.94-1.53 16.07zm-277.18-.37c-.15-11.77 2.12-23.74-2.44-36-1.77 12.79-1.84 24.57 2.44 36zM242.87 23.17c-6.62-8-38.63-10.38-47.59-6.25 16.29 3.08 33.02-3.81 47.59 6.25zM166.3 6.07c-12.51-.63-25.09-2-37.22 2l.07 1.48h9.06l-3.44-.87c11.14-2.47 21.69 2.25 31.53-2.61zM3.94 113.75c-.82 6 3.36 10.93 3.51 16.92s-2 12.21.7 19.42c2.28-15.46-.18-29.72-.54-44-2.92 4 .4 8.5-.52 13.2-2.29-1.95-1.63-4.1-3.15-5.54zm53.34-103.1c1.36 1.26 2.4 1.19 3.27.67 7.62-4.47 16-3.25 24.24-3.38a17.33 17.33 0 0 0 4-.26c1.37-.34 3.36-.77 3-2.63-.41-2.25-2.32-1.33-3.63-.85-6.53 2.37-13.3 2-20.07 2.32-3.76.16-7.97.48-10.81 4.13z"></path></g></g><defs><filter id="5r31zk-5LerADzV9pHp3R"><feColorMatrix type="matrix" values="0 0 0 0 0.0859375  0 0 0 0 0.515625  0 0 0 0 0.671875  0 0 0 1 0"></feColorMatrix></filter></defs></svg></g> <g filter="url(#colors4374718340)"><svg xmlns="http://www.w3.org/2000/svg" xmlns:xlink="http://www.w3.org/1999/xlink" viewBox="0 0 62.76034513074633 67.30122141450195" width="45" height="43.99601" x="7.5" y="7.332669018888954" class="image-svg-letter"><path transform="translate(-3.9105000000000003 58.4749010998943)" d="M7.56 4.39C8.35 5.33 9.72 5.98 11.38 4.82C18.07 0.07 28.80-8.57 32.90-13.54C33.77-14.54 32.76-15.70 31.46-15.19C29.74-14.26 27.58-13.25 25.20-12.24C27.65-15.26 29.66-18.58 30.96-20.66C31.39-21.46 31.90-22.25 32.26-22.97C32.26-22.75 32.33-22.54 32.40-22.25C33.91-18.14 34.20-3.17 33.77 1.73C33.34 6.55 35.14 8.14 37.87 8.71C39.82 9.22 43.20 8.14 42.77 3.82L42.70 3.10C45.86 2.74 49.32 2.52 52.56 2.38L52.78 3.10C53.06 3.74 53.21 4.25 53.35 4.97C54.43 8.50 59.90 6.55 61.27 2.59C61.92 0.50 62.64-4.03 63.29-8.06C63.86-11.66 64.30-14.62 64.51-15.12C65.23-16.27 65.88-17.21 65.09-18.79C64.01-20.45 60.91-22.61 59.18-23.54C57.82-24.34 56.81-24.26 55.37-23.47C54.65-23.11 53.14-22.68 51.34-22.32C51.34-25.13 51.41-28.44 51.48-31.82C52.06-31.68 52.56-31.68 53.06-31.82L65.09-33.84C66.74-34.20 67.18-35.78 66.02-38.09C65.45-38.95 64.51-40.32 63.29-41.18C62.78-41.69 61.85-42.26 59.33-41.62C57.10-40.97 54.22-40.18 51.77-39.60C51.98-44.50 52.20-48.82 52.49-51.05C52.78-53.78 52.34-54.72 51.41-55.66C50.04-57.02 47.66-57.82 44.35-58.46C42.05-58.61 41.40-57.31 41.83-55.37C42.55-52.85 42.62-51.26 42.62-48.74L42.62-46.51C42.70-45.36 42.70-43.99 42.70-42.55C42.84-35.93 42.98-26.71 42.98-21.17C42.41-21.10 41.90-21.10 41.40-21.10C41.18-21.38 40.82-21.67 40.32-22.03C39.60-22.61 35.71-24.12 33.19-24.19C32.98-24.19 32.83-24.19 32.69-24.12C32.90-25.13 32.83-26.14 32.11-27.07C30.67-29.02 27.36-31.10 24.77-31.10C27.94-32.04 31.10-32.90 33.26-33.41C34.85-33.84 35.64-34.78 34.78-35.93C33.98-37.08 32.83-38.95 31.90-39.74C30.96-40.68 29.16-40.90 27.50-40.39C22.97-38.74 9.22-35.28 6.91-35.14C5.90-35.06 4.54-34.34 5.54-32.90C6.41-31.46 8.57-28.87 9.65-28.22C10.87-27.50 11.45-27.22 13.39-27.72C14.62-28.01 16.49-28.66 18.65-29.23C19.22-29.38 19.66-29.52 20.23-29.74C21.10-29.95 22.03-30.24 22.97-30.60C23.11-30.60 23.18-30.67 23.33-30.67C22.97-30.38 22.75-29.88 22.97-28.94C23.90-25.56 21.60-16.92 19.58-9.94C17.78-9.22 15.98-8.57 14.40-7.99C12.89-7.42 11.52-6.84 10.44-6.48C8.71-5.83 7.63-5.47 5.98-5.69C4.03-5.76 3.60-3.46 4.10-1.73C5.11 0.50 6.55 3.31 7.56 4.39ZM9.43-23.33C9.86-22.39 10.37-21.31 10.73-20.16L11.16-19.01C12.02-16.78 12.96-14.47 13.90-12.46C14.26-11.95 15.34-10.51 16.49-11.45C20.38-13.82 21.96-19.73 17.42-23.69C15.70-25.06 12.74-25.85 10.73-25.78C8.86-25.49 9.22-23.83 9.50-23.40ZM15.62-52.13C15.98-51.41 16.49-50.69 16.92-50.04C17.28-49.61 17.50-49.25 17.71-48.82C19.15-46.58 20.66-44.21 22.25-42.12C22.46-41.76 23.90-40.68 24.98-41.69C28.22-44.86 28.51-51.12 23.40-54.00C21.38-55.15 18.22-55.30 16.27-54.65C14.54-54.36 14.98-52.56 15.62-52.13ZM41.98-13.54C42.77-13.61 43.56-13.75 44.42-13.90C47.59-14.54 50.90-15.19 55.15-15.48C55.37-15.48 55.37-15.48 55.37-15.26C55.15-13.54 54.50-8.06 53.86-4.61C51.26-4.46 47.09-4.10 43.49-3.82C43.06-3.82 42.62-3.74 42.26-3.74C42.05-7.27 41.98-10.80 41.98-13.54Z"></path></svg></g></g><mask id="4643a675-aa47-4931-a9ed-41e451ed0619"><g fill="white"><svg xmlns="http://www.w3.org/2000/svg" viewBox="0.03419 -0.0032 291.27557 284.77563" style="overflow: visible;" width="60" height="58.661348037777906" x="0" y="0" filtersec="colorsf5647854027"><g transform="scale(1, 1) skewX(0)"><g><path d="M287.78 192.13c-2.19-3.91-.23-7.53-3.19-10.37-1 4.75 0 9 3.13 11.17 3.31 2.34 3.12 6.07 1.93 7.15-3.3 3-.53 5.67-.72 8.4a80.74 80.74 0 0 1-4.87 22.8c-1 2.82-2.21 5.5-2.43 8.57-.14 2-.27 3.66-3.41 4.34-3.49.74-4.35 5-6 8.18 1.91.42 2.17-2.48 4.56-1.06-1.78 7.69-6.5 13.69-12.14 19.17a2 2 0 0 1-2.28.32c-4.11-1.65-6-.41-5.79 3.75.05 1.08-.61 1.42-1.29 1.87a27 27 0 0 1-8 3.93c-1 .24-2.08 1.13-2.75-.8-.87-2.5-1.54-2.7-3.38-.79-6.51 6.77-14.81 4.48-22.54 5.16 5.1-4.29 11.7-3.73 17.49-6 8.93-3.48 17.3-7.29 23.77-14.56.63-.7 1.42-1.82 2.42-1.2.51.31.39 1.63.79 3.76.85-5.3 6.34-8 3.41-13.31-1.72-.05-2.1 1.49-2.88 2.38-10.86 12.47-24.2 20.27-40.89 21.37-9.93.65-19.32 4.36-29.42 4.27s-20.08 1.35-30.12-.22c-2-.32-4-.32-5.71 1a5 5 0 0 1-4.32.71c-6.17-1.51-12.25-.07-18.28.68-5.69.7-10.92-1.62-16.68-1.31-7.47.41-14.78 2-22.23 2.18-2.21.06-5 2-6.49-1.52-.09-.21-.92-.37-1.23-.2-11.19 5.89-21.73 1.31-32.08-2.42-10-3.62-19.11-9.44-27.67-15.68-8.15-5.94-12.56-14.73-14-24.76-.39-2.69-2.86-3.8-3.65-6.27-2.33-7.32-2.27-14.57-1.29-22.1.78-6 1.23-12.19-1.19-18.14-.88 4.42-2.68 8.53-1.36 13.25.9 3.21 3 7.24-2.41 9.18-1.34.48-.12 1.79.31 2.47 2 3.18 2.54 6.8 3.31 10.37 3.93 18.24 11.86 34.1 27.16 45.58a22.14 22.14 0 0 1 2.67 2.24 2.57 2.57 0 0 1 .46 3.2c-.92 1.23-2.14.25-3.05-.37a76 76 0 0 1-15.85-14.37c-5.93-7.1-11.34-14.85-13-23.88-1.95-10.33-5.31-20.38-4.84-31.33.79-18.27.29-36.61.11-54.92-.13-12.75-1.42-25.49-.55-38.25.19-2.81.05-5.69.68-8.39a29.76 29.76 0 0 0-1.5-18 6.94 6.94 0 0 1 .38-5.82A10.24 10.24 0 0 0 1 74a4.88 4.88 0 0 1-.61-2.83C2.72 61.38 3.45 51.15 10.6 43c3.4-3.92 5.45-9 8.09-13.5 1.38-2.38 2.45-4.57 5.64-5.69 4.08-1.43 5.53-6.69 9.84-8.39 1.84-.73 3.12-4.78 5.65-.78.12.18 1.27-.13 1.83-.42a14.62 14.62 0 0 0 3.39-2c2.92-2.73 9.23-1.58 9.85-4C56.2 3 60 3.59 63.08 2.27a20.05 20.05 0 0 1 11.79-1.15C80.6 2.28 86 1.57 91.61.45c2.33-.46 5-1 7 1.32.21.25.55.68.7.63 7.68-2.5 15.38 4.25 23.32-.51 4.23-2.54 9.55-2 14.65-1.36a112.77 112.77 0 0 0 15.93.38c7.69-.16 15.28.18 22.7 2.42a22.67 22.67 0 0 0 8.88.58c-.33-1.23-2-.37-2.27-2.41 4-.09 8.11-1.55 12 .89 1.48.94 2.44-.19 3.64-.19 2 0 4-.23 6-.13 3 .13 7.69-1.15 8 2.76.34 4.11-4.67 1.6-7 2.94 4.42 1 8.17 0 11.21-3.52a7.27 7.27 0 0 1 5.81-2.32c10-.08 18.71 3.34 27.14 8.41 4.57 2.76 8.42 6.49 13.62 8.49s9 6.41 12.39 10.94a84.94 84.94 0 0 1 8.75 15.67c1.14 2.5 3.3 4.75.05 7.73-1.49 1.37-.83 4.36.92 7l1-4.44c2.23 10 6.33 19.66 5 30.1-.25 2 .75 4.93-3.5 4.28-2.15-.33-1.38 2.28-1.25 3.54.39 3.63 2.35 7.63 1.36 10.76-1.86 5.92.14 10.81 1.88 16 .93 2.76-.46 5.23-.62 7.85-.63 10.58.94 21.11-.21 31.8a65.59 65.59 0 0 0 .6 16c.69 4.87-.31 9.94-1.53 16.07zm-277.18-.37c-.15-11.77 2.12-23.74-2.44-36-1.77 12.79-1.84 24.57 2.44 36zM242.87 23.17c-6.62-8-38.63-10.38-47.59-6.25 16.29 3.08 33.02-3.81 47.59 6.25zM166.3 6.07c-12.51-.63-25.09-2-37.22 2l.07 1.48h9.06l-3.44-.87c11.14-2.47 21.69 2.25 31.53-2.61zM3.94 113.75c-.82 6 3.36 10.93 3.51 16.92s-2 12.21.7 19.42c2.28-15.46-.18-29.72-.54-44-2.92 4 .4 8.5-.52 13.2-2.29-1.95-1.63-4.1-3.15-5.54zm53.34-103.1c1.36 1.26 2.4 1.19 3.27.67 7.62-4.47 16-3.25 24.24-3.38a17.33 17.33 0 0 0 4-.26c1.37-.34 3.36-.77 3-2.63-.41-2.25-2.32-1.33-3.63-.85-6.53 2.37-13.3 2-20.07 2.32-3.76.16-7.97.48-10.81 4.13z"></path></g></g><defs></defs></svg></g> <g fill="black"><svg xmlns="http://www.w3.org/2000/svg" xmlns:xlink="http://www.w3.org/1999/xlink" viewBox="0 0 62.76034513074633 67.30122141450195" width="45" height="43.99601" x="7.5" y="7.332669018888954" class="image-svg-letter"><path transform="translate(-3.9105000000000003 58.4749010998943)" d="M7.56 4.39C8.35 5.33 9.72 5.98 11.38 4.82C18.07 0.07 28.80-8.57 32.90-13.54C33.77-14.54 32.76-15.70 31.46-15.19C29.74-14.26 27.58-13.25 25.20-12.24C27.65-15.26 29.66-18.58 30.96-20.66C31.39-21.46 31.90-22.25 32.26-22.97C32.26-22.75 32.33-22.54 32.40-22.25C33.91-18.14 34.20-3.17 33.77 1.73C33.34 6.55 35.14 8.14 37.87 8.71C39.82 9.22 43.20 8.14 42.77 3.82L42.70 3.10C45.86 2.74 49.32 2.52 52.56 2.38L52.78 3.10C53.06 3.74 53.21 4.25 53.35 4.97C54.43 8.50 59.90 6.55 61.27 2.59C61.92 0.50 62.64-4.03 63.29-8.06C63.86-11.66 64.30-14.62 64.51-15.12C65.23-16.27 65.88-17.21 65.09-18.79C64.01-20.45 60.91-22.61 59.18-23.54C57.82-24.34 56.81-24.26 55.37-23.47C54.65-23.11 53.14-22.68 51.34-22.32C51.34-25.13 51.41-28.44 51.48-31.82C52.06-31.68 52.56-31.68 53.06-31.82L65.09-33.84C66.74-34.20 67.18-35.78 66.02-38.09C65.45-38.95 64.51-40.32 63.29-41.18C62.78-41.69 61.85-42.26 59.33-41.62C57.10-40.97 54.22-40.18 51.77-39.60C51.98-44.50 52.20-48.82 52.49-51.05C52.78-53.78 52.34-54.72 51.41-55.66C50.04-57.02 47.66-57.82 44.35-58.46C42.05-58.61 41.40-57.31 41.83-55.37C42.55-52.85 42.62-51.26 42.62-48.74L42.62-46.51C42.70-45.36 42.70-43.99 42.70-42.55C42.84-35.93 42.98-26.71 42.98-21.17C42.41-21.10 41.90-21.10 41.40-21.10C41.18-21.38 40.82-21.67 40.32-22.03C39.60-22.61 35.71-24.12 33.19-24.19C32.98-24.19 32.83-24.19 32.69-24.12C32.90-25.13 32.83-26.14 32.11-27.07C30.67-29.02 27.36-31.10 24.77-31.10C27.94-32.04 31.10-32.90 33.26-33.41C34.85-33.84 35.64-34.78 34.78-35.93C33.98-37.08 32.83-38.95 31.90-39.74C30.96-40.68 29.16-40.90 27.50-40.39C22.97-38.74 9.22-35.28 6.91-35.14C5.90-35.06 4.54-34.34 5.54-32.90C6.41-31.46 8.57-28.87 9.65-28.22C10.87-27.50 11.45-27.22 13.39-27.72C14.62-28.01 16.49-28.66 18.65-29.23C19.22-29.38 19.66-29.52 20.23-29.74C21.10-29.95 22.03-30.24 22.97-30.60C23.11-30.60 23.18-30.67 23.33-30.67C22.97-30.38 22.75-29.88 22.97-28.94C23.90-25.56 21.60-16.92 19.58-9.94C17.78-9.22 15.98-8.57 14.40-7.99C12.89-7.42 11.52-6.84 10.44-6.48C8.71-5.83 7.63-5.47 5.98-5.69C4.03-5.76 3.60-3.46 4.10-1.73C5.11 0.50 6.55 3.31 7.56 4.39ZM9.43-23.33C9.86-22.39 10.37-21.31 10.73-20.16L11.16-19.01C12.02-16.78 12.96-14.47 13.90-12.46C14.26-11.95 15.34-10.51 16.49-11.45C20.38-13.82 21.96-19.73 17.42-23.69C15.70-25.06 12.74-25.85 10.73-25.78C8.86-25.49 9.22-23.83 9.50-23.40ZM15.62-52.13C15.98-51.41 16.49-50.69 16.92-50.04C17.28-49.61 17.50-49.25 17.71-48.82C19.15-46.58 20.66-44.21 22.25-42.12C22.46-41.76 23.90-40.68 24.98-41.69C28.22-44.86 28.51-51.12 23.40-54.00C21.38-55.15 18.22-55.30 16.27-54.65C14.54-54.36 14.98-52.56 15.62-52.13ZM41.98-13.54C42.77-13.61 43.56-13.75 44.42-13.90C47.59-14.54 50.90-15.19 55.15-15.48C55.37-15.48 55.37-15.48 55.37-15.26C55.15-13.54 54.50-8.06 53.86-4.61C51.26-4.46 47.09-4.10 43.49-3.82C43.06-3.82 42.62-3.74 42.26-3.74C42.05-7.27 41.98-10.80 41.98-13.54Z"></path></svg></g></mask></svg> <defs><filter id="colors4374718340"><feColorMatrix type="matrix" values="0 0 0 0 0.19921875  0 0 0 0 0.19921875  0 0 0 0 0.19921875  0 0 0 1 0" class="icon-fecolormatrix"></feColorMatrix></filter> <filter id="colorsf5647854027"><feColorMatrix type="matrix" values="0 0 0 0 0.99609375  0 0 0 0 0.99609375  0 0 0 0 0.99609375  0 0 0 1 0" class="icon-fecolormatrix"></feColorMatrix></filter> <filter id="colorsb9113960369"><feColorMatrix type="matrix" values="0 0 0 0 0  0 0 0 0 0  0 0 0 0 0  0 0 0 1 0" class="icon-fecolormatrix"></feColorMatrix></filter></defs></g> <g transform="translate(52.617252349853516,110.23450469970703)"><g data-gra="path-name" fill-rule="" class="tp-name iconsvg-namesvg"><g transform="scale(1)"><g><path d="" transform="translate(0, 0)"></path></g> <!----> <!----> <!----> <!----> <!----> <!----> <!----></g></g> <!----></g></g><defs v-gra="od"></defs></svg>